<?xml version="1.0" encoding="UTF-8"?>
<svg xmlns="http://www.w3.org/2000/svg" xmlns:xlink="http://www.w3.org/1999/xlink" width="375pt" height="374.999991pt" viewBox="0 0 375 374.999991" version="1.2">
<defs>
<clipPath id="clip1">
  <path d="M 25.78125 155 L 66 155 L 66 167 L 25.78125 167 Z M 25.78125 155 "/>
</clipPath>
<clipPath id="clip2">
  <path d="M 309.324219 156 L 348.820312 156 L 348.820312 168 L 309.324219 168 Z M 309.324219 156 "/>
</clipPath>
</defs>
<g id="surface1">
<path style=" stroke:none;fill-rule:nonzero;fill:rgb(0%,0%,0%);fill-opacity:1;" d="M 261.4375 86.953125 C 242.097656 67.46875 216.335938 56.632812 188.90625 56.433594 L 188.15625 56.425781 C 168.394531 56.425781 149.136719 62.128906 132.460938 72.902344 C 129.878906 74.574219 129.132812 78.019531 130.796875 80.605469 C 132.46875 83.1875 135.910156 83.933594 138.496094 82.257812 C 153.375 72.648438 170.546875 67.5625 188.15625 67.5625 L 188.824219 67.574219 C 239.269531 67.9375 280.316406 109.304688 280.316406 159.789062 C 280.316406 181.292969 272.753906 202.226562 259.027344 218.734375 C 257.0625 221.097656 257.382812 224.609375 259.75 226.574219 C 260.789062 227.445312 262.050781 227.867188 263.304688 227.867188 C 264.898438 227.867188 266.488281 227.183594 267.585938 225.855469 C 282.972656 207.359375 291.445312 183.894531 291.445312 159.789062 C 291.449219 132.316406 280.789062 106.445312 261.4375 86.953125 "/>
<path style=" stroke:none;fill-rule:nonzero;fill:rgb(0%,0%,0%);fill-opacity:1;" d="M 253.660156 301.351562 C 257.742188 297.554688 260.300781 292.136719 260.300781 286.136719 C 260.300781 275.359375 252.054688 266.464844 241.546875 265.445312 C 243.074219 256.925781 246.769531 248.792969 252.316406 241.9375 C 254.25 239.546875 253.878906 236.035156 251.488281 234.105469 C 249.101562 232.164062 245.597656 232.539062 243.660156 234.929688 C 236.53125 243.75 231.921875 254.308594 230.273438 265.351562 L 145.96875 265.351562 C 143.820312 251.007812 136.898438 237.789062 126.234375 228.105469 C 107.003906 210.648438 95.96875 185.746094 95.96875 159.789062 C 95.96875 135.753906 105.3125 112.941406 122.269531 95.546875 C 124.417969 93.347656 124.375 89.820312 122.167969 87.671875 C 119.96875 85.519531 116.445312 85.5625 114.300781 87.769531 C 95.300781 107.253906 84.835938 132.835938 84.835938 159.789062 C 84.835938 188.886719 97.203125 216.796875 118.753906 236.355469 C 127.117188 243.953125 132.691406 254.230469 134.710938 265.449219 C 124.214844 266.488281 115.984375 275.371094 115.984375 286.136719 C 115.984375 292.136719 118.546875 297.554688 122.628906 301.351562 C 118.546875 305.148438 115.984375 310.5625 115.984375 316.566406 C 115.984375 328.023438 125.308594 337.351562 136.757812 337.351562 L 146.589844 337.351562 C 146.847656 339.917969 147.347656 342.472656 148.074219 344.96875 C 149.953125 351.355469 153.347656 357.261719 157.917969 362.042969 C 159.007812 363.183594 160.46875 363.765625 161.9375 363.765625 C 163.320312 363.765625 164.707031 363.25 165.78125 362.226562 C 168.007812 360.101562 168.089844 356.574219 165.964844 354.347656 C 162.574219 350.796875 160.15625 346.585938 158.761719 341.835938 C 158.324219 340.355469 158.003906 338.855469 157.804688 337.351562 L 218.480469 337.351562 C 216.863281 349.136719 208.378906 359.203125 196.757812 362.613281 C 192.023438 364 187.03125 364.230469 182.226562 363.28125 C 179.214844 362.6875 176.285156 364.644531 175.691406 367.667969 C 175.09375 370.683594 177.054688 373.617188 180.070312 374.210938 C 182.714844 374.734375 185.433594 375 188.128906 375 C 192.097656 375 196.054688 374.429688 199.890625 373.304688 C 216.234375 368.515625 228.019531 354.050781 229.695312 337.351562 L 239.527344 337.351562 C 250.976562 337.351562 260.300781 328.023438 260.300781 316.566406 C 260.300781 310.5625 257.742188 305.148438 253.660156 301.351562 Z M 240.738281 326.128906 C 240.339844 326.1875 239.9375 326.210938 239.527344 326.210938 L 136.757812 326.210938 C 136.347656 326.210938 135.949219 326.1875 135.546875 326.128906 C 130.804688 325.542969 127.117188 321.472656 127.117188 316.566406 C 127.117188 311.65625 130.804688 307.585938 135.546875 307 C 135.949219 306.941406 136.347656 306.917969 136.757812 306.917969 L 239.527344 306.917969 C 239.933594 306.917969 240.335938 306.941406 240.738281 307 C 245.476562 307.585938 249.167969 311.65625 249.167969 316.566406 C 249.167969 321.472656 245.480469 325.542969 240.738281 326.128906 Z M 240.738281 295.703125 L 136.757812 295.785156 C 131.445312 295.785156 127.121094 291.453125 127.121094 286.136719 C 127.121094 281.230469 130.808594 277.160156 135.550781 276.574219 C 135.949219 276.511719 136.351562 276.492188 136.757812 276.492188 L 239.527344 276.492188 C 239.9375 276.492188 240.339844 276.511719 240.742188 276.574219 C 245.480469 277.160156 249.171875 281.230469 249.171875 286.136719 C 249.167969 291.042969 245.480469 295.113281 240.738281 295.703125 "/>
<path style=" stroke:none;fill-rule:nonzero;fill:rgb(0%,0%,0%);fill-opacity:1;" d="M 188.140625 0 C 185.066406 0 182.578125 2.492188 182.578125 5.570312 L 182.578125 33.941406 C 182.578125 37.015625 185.066406 39.507812 188.140625 39.507812 C 191.214844 39.507812 193.707031 37.015625 193.707031 33.941406 L 193.707031 5.570312 C 193.707031 2.492188 191.214844 0 188.140625 0 "/>
<path style=" stroke:none;fill-rule:nonzero;fill:rgb(0%,0%,0%);fill-opacity:1;" d="M 101.710938 66.839844 L 81.664062 46.777344 C 79.488281 44.605469 75.964844 44.605469 73.789062 46.777344 C 71.617188 48.953125 71.617188 52.480469 73.789062 54.652344 L 93.839844 74.714844 C 94.925781 75.800781 96.351562 76.347656 97.777344 76.347656 C 99.199219 76.347656 100.625 75.800781 101.710938 74.714844 C 103.886719 72.542969 103.886719 69.015625 101.710938 66.839844 "/>
<g clip-path="url(#clip1)" clip-rule="nonzero">
<path style=" stroke:none;fill-rule:nonzero;fill:rgb(0%,0%,0%);fill-opacity:1;" d="M 59.90625 155.195312 L 31.554688 155.195312 C 28.480469 155.195312 25.988281 157.6875 25.988281 160.761719 C 25.988281 163.839844 28.480469 166.332031 31.554688 166.332031 L 59.90625 166.332031 C 62.984375 166.332031 65.472656 163.839844 65.472656 160.761719 C 65.472656 157.6875 62.984375 155.195312 59.90625 155.195312 "/>
</g>
<path style=" stroke:none;fill-rule:nonzero;fill:rgb(0%,0%,0%);fill-opacity:1;" d="M 100.664062 247.246094 C 98.488281 245.070312 94.964844 245.070312 92.789062 247.246094 L 72.738281 267.308594 C 70.566406 269.480469 70.566406 273.007812 72.738281 275.183594 C 73.828125 276.269531 75.253906 276.8125 76.675781 276.8125 C 78.101562 276.8125 79.527344 276.269531 80.613281 275.183594 L 100.664062 255.121094 C 102.835938 252.945312 102.835938 249.417969 100.664062 247.246094 "/>
<path style=" stroke:none;fill-rule:nonzero;fill:rgb(0%,0%,0%);fill-opacity:1;" d="M 301.011719 268.355469 L 280.960938 248.292969 C 278.789062 246.121094 275.265625 246.121094 273.089844 248.292969 C 270.917969 250.46875 270.917969 253.996094 273.089844 256.171875 L 293.140625 276.230469 C 294.226562 277.320312 295.652344 277.863281 297.074219 277.863281 C 298.5 277.863281 299.925781 277.320312 301.011719 276.230469 C 303.1875 274.058594 303.1875 270.53125 301.011719 268.355469 "/>
<g clip-path="url(#clip2)" clip-rule="nonzero">
<path style=" stroke:none;fill-rule:nonzero;fill:rgb(0%,0%,0%);fill-opacity:1;" d="M 343.25 156.679688 L 314.890625 156.679688 C 311.816406 156.679688 309.324219 159.171875 309.324219 162.25 C 309.324219 165.324219 311.816406 167.816406 314.890625 167.816406 L 343.25 167.816406 C 346.324219 167.816406 348.816406 165.324219 348.816406 162.25 C 348.8125 159.171875 346.320312 156.679688 343.25 156.679688 "/>
</g>
<path style=" stroke:none;fill-rule:nonzero;fill:rgb(0%,0%,0%);fill-opacity:1;" d="M 302.0625 47.828125 C 299.886719 45.65625 296.363281 45.65625 294.1875 47.828125 L 274.140625 67.890625 C 271.964844 70.066406 271.964844 73.59375 274.140625 75.765625 C 275.226562 76.855469 276.652344 77.398438 278.074219 77.398438 C 279.5 77.398438 280.925781 76.855469 282.011719 75.765625 L 302.0625 55.703125 C 304.238281 53.53125 304.238281 50.003906 302.0625 47.828125 "/>
<path style=" stroke:none;fill-rule:nonzero;fill:rgb(0%,0%,0%);fill-opacity:1;" d="M 188.386719 160.824219 L 188.054688 160.808594 C 188.019531 160.808594 187.988281 160.808594 187.953125 160.808594 C 179.21875 160.625 172.109375 153.148438 172.109375 144.140625 C 172.109375 135.335938 179.269531 128.082031 188.023438 127.972656 L 188.191406 127.972656 C 197.007812 128.066406 204.179688 135.308594 204.179688 144.140625 C 204.179688 147.214844 206.667969 149.710938 209.746094 149.710938 C 212.820312 149.710938 215.3125 147.214844 215.3125 144.140625 C 215.3125 131.078125 206.023438 120.070312 193.710938 117.433594 L 193.710938 104.972656 C 193.710938 101.898438 191.21875 99.402344 188.144531 99.402344 C 185.066406 99.402344 182.578125 101.898438 182.578125 104.972656 L 182.578125 117.4375 C 170.269531 120.078125 160.976562 131.101562 160.976562 144.140625 C 160.976562 159.144531 172.941406 171.601562 187.664062 171.941406 L 188.054688 171.957031 C 188.128906 171.960938 188.199219 171.964844 188.269531 171.964844 C 197.183594 171.964844 204.433594 179.21875 204.433594 188.132812 C 204.433594 197.050781 197.183594 204.308594 188.261719 204.308594 L 188.015625 204.308594 C 179.105469 204.308594 171.855469 197.054688 171.855469 188.136719 C 171.855469 185.058594 169.363281 182.566406 166.289062 182.566406 C 163.214844 182.566406 160.722656 185.058594 160.722656 188.136719 C 160.722656 201.332031 170.121094 212.367188 182.578125 214.898438 L 182.578125 226.945312 C 182.578125 230.019531 185.066406 232.515625 188.140625 232.515625 C 191.214844 232.515625 193.707031 230.019531 193.707031 226.945312 L 193.707031 214.898438 C 206.160156 212.371094 215.566406 201.332031 215.566406 188.136719 C 215.5625 173.113281 203.382812 160.886719 188.386719 160.824219 "/>
</g>
</svg>
