<?xml version="1.0" encoding="UTF-8"?>
<svg xmlns="http://www.w3.org/2000/svg" xmlns:xlink="http://www.w3.org/1999/xlink" width="375pt" height="374.999991pt" viewBox="0 0 375 374.999991" version="1.2">
<g id="surface1">
<path style=" stroke:none;fill-rule:nonzero;fill:rgb(6.269836%,5.879211%,5.099487%);fill-opacity:1;" d="M 164.339844 227.199219 L 164.339844 200.609375 C 164.339844 190.128906 172.105469 181.597656 181.640625 181.597656 C 191.199219 181.597656 198.960938 190.128906 198.960938 200.609375 L 198.960938 224.628906 C 198.960938 253.554688 208.675781 281.332031 226.285156 302.835938 L 250.589844 332.484375 C 252.617188 334.957031 252.441406 338.816406 250.179688 341.035156 C 247.898438 343.277344 244.40625 343.082031 242.375 340.585938 L 218.074219 310.941406 C 198.628906 287.214844 187.902344 256.554688 187.902344 224.628906 L 187.902344 200.609375 C 187.902344 196.8125 185.09375 193.734375 181.640625 193.734375 C 178.1875 193.734375 175.378906 196.8125 175.378906 200.609375 L 175.378906 227.199219 C 175.378906 262.808594 187.394531 296.914062 209.199219 323.25 L 232.878906 351.867188 C 234.945312 354.359375 234.769531 358.175781 232.507812 360.4375 C 231.453125 361.507812 230.128906 362.015625 228.800781 362.015625 C 227.300781 362.015625 225.796875 361.351562 224.707031 360.027344 L 201.027344 331.414062 C 177.371094 302.835938 164.339844 265.828125 164.339844 227.199219 "/>
<path style=" stroke:none;fill-rule:nonzero;fill:rgb(6.269836%,5.879211%,5.099487%);fill-opacity:1;" d="M 140.761719 200.609375 C 140.761719 175.851562 159.09375 155.710938 181.640625 155.710938 C 204.1875 155.710938 222.542969 175.851562 222.542969 200.609375 L 222.542969 224.628906 C 222.542969 247.144531 230.089844 268.769531 243.800781 285.5 L 261.082031 306.578125 C 263.109375 309.070312 262.933594 312.90625 260.671875 315.148438 C 258.390625 317.386719 254.898438 317.191406 252.871094 314.699219 L 235.589844 293.625 C 220.042969 274.648438 211.484375 250.144531 211.484375 224.628906 L 211.484375 200.609375 C 211.484375 182.550781 198.101562 167.84375 181.640625 167.84375 C 165.199219 167.84375 151.820312 182.550781 151.820312 200.609375 L 151.820312 227.199219 C 151.820312 269.253906 166 309.558594 191.765625 340.664062 L 211.734375 364.820312 C 213.785156 367.292969 213.628906 371.132812 211.367188 373.390625 C 210.3125 374.441406 208.984375 374.96875 207.660156 374.96875 C 206.15625 374.96875 204.65625 374.285156 203.5625 372.980469 L 183.570312 348.828125 C 155.972656 315.480469 140.761719 272.273438 140.761719 227.199219 L 140.761719 200.609375 "/>
<path style=" stroke:none;fill-rule:nonzero;fill:rgb(6.269836%,5.879211%,5.099487%);fill-opacity:1;" d="M 117.179688 200.609375 C 117.179688 161.574219 146.105469 129.820312 181.640625 129.820312 C 217.175781 129.820312 246.101562 161.574219 246.101562 200.609375 L 246.101562 224.628906 C 246.101562 240.738281 251.503906 256.203125 261.335938 268.183594 L 276.878906 287.15625 C 278.925781 289.648438 278.734375 293.488281 276.46875 295.746094 C 274.207031 297.988281 270.714844 297.773438 268.667969 295.277344 L 253.125 276.304688 C 241.480469 262.085938 235.0625 243.738281 235.0625 224.628906 L 235.0625 200.609375 C 235.0625 168.273438 211.09375 141.957031 181.640625 141.957031 C 152.191406 141.957031 128.238281 168.273438 128.238281 200.609375 L 128.238281 227.199219 C 128.238281 275.722656 144.601562 322.199219 174.308594 358.082031 L 179.847656 364.761719 C 181.894531 367.234375 181.71875 371.09375 179.476562 373.351562 C 178.402344 374.402344 177.078125 374.929688 175.75 374.929688 C 174.25 374.929688 172.765625 374.25 171.675781 372.921875 L 166.136719 366.242188 C 134.578125 328.121094 117.179688 278.742188 117.179688 227.199219 L 117.179688 200.609375 "/>
<path style=" stroke:none;fill-rule:nonzero;fill:rgb(6.269836%,5.879211%,5.099487%);fill-opacity:1;" d="M 269.683594 200.609375 C 269.683594 203.960938 267.207031 206.667969 264.164062 206.667969 C 261.101562 206.667969 258.625 203.960938 258.625 200.609375 C 258.625 180.175781 251.875 160.441406 239.605469 145.035156 C 227.457031 129.761719 210.78125 119.789062 192.640625 116.925781 C 189.636719 116.457031 187.53125 113.382812 187.960938 110.050781 C 188.410156 106.738281 191.199219 104.441406 194.222656 104.925781 C 214.972656 108.179688 234.046875 119.59375 247.9375 137.046875 C 261.957031 154.65625 269.683594 177.234375 269.683594 200.609375 "/>
<path style=" stroke:none;fill-rule:nonzero;fill:rgb(6.269836%,5.879211%,5.099487%);fill-opacity:1;" d="M 258.625 224.628906 C 258.625 221.257812 261.101562 218.550781 264.164062 218.550781 C 267.207031 218.550781 269.683594 221.257812 269.683594 224.628906 C 269.683594 234.328125 272.941406 243.660156 278.847656 250.867188 L 292.679688 267.753906 C 294.726562 270.25 294.550781 274.066406 292.269531 276.304688 C 291.214844 277.359375 289.890625 277.863281 288.582031 277.863281 C 287.0625 277.863281 285.558594 277.203125 284.464844 275.859375 L 270.636719 258.988281 C 262.894531 249.542969 258.625 237.328125 258.625 224.628906 "/>
<path style=" stroke:none;fill-rule:nonzero;fill:rgb(6.269836%,5.879211%,5.099487%);fill-opacity:1;" d="M 107.117188 295.785156 C 110.0625 294.871094 113.125 296.71875 113.960938 299.933594 C 116.207031 308.425781 118.9375 316.863281 122.09375 325.003906 C 123.304688 328.082031 121.996094 331.648438 119.1875 332.953125 C 118.527344 333.261719 117.84375 333.417969 117.160156 333.4375 C 114.957031 333.496094 112.851562 332.113281 111.933594 329.757812 C 108.597656 321.167969 105.710938 312.265625 103.351562 303.304688 C 102.511719 300.089844 104.191406 296.71875 107.117188 295.785156 "/>
<path style=" stroke:none;fill-rule:nonzero;fill:rgb(6.269836%,5.879211%,5.099487%);fill-opacity:1;" d="M 122.855469 128.710938 C 125.117188 126.472656 128.609375 126.667969 130.65625 129.160156 C 132.6875 131.652344 132.511719 135.492188 130.230469 137.730469 C 113.980469 153.78125 104.660156 176.707031 104.660156 200.609375 L 104.660156 227.199219 C 104.660156 237.289062 105.300781 247.457031 106.550781 257.429688 C 106.960938 260.742188 104.855469 263.800781 101.832031 264.269531 C 101.578125 264.308594 101.324219 264.328125 101.070312 264.328125 C 98.359375 264.328125 95.980469 262.125 95.589844 259.085938 C 94.28125 248.566406 93.621094 237.835938 93.621094 227.199219 L 93.621094 200.609375 C 93.621094 173.261719 104.269531 147.0625 122.855469 128.710938 "/>
<path style=" stroke:none;fill-rule:nonzero;fill:rgb(6.269836%,5.879211%,5.099487%);fill-opacity:1;" d="M 148.679688 124.210938 C 147.917969 124.621094 147.101562 124.796875 146.300781 124.796875 C 144.234375 124.796875 142.261719 123.53125 141.308594 121.347656 C 140 118.328125 141.171875 114.707031 143.921875 113.265625 C 151.898438 109.097656 160.34375 106.289062 169.082031 104.90625 C 172.105469 104.441406 174.894531 106.738281 175.320312 110.050781 C 175.75 113.382812 173.664062 116.441406 170.640625 116.925781 C 163.015625 118.132812 155.640625 120.589844 148.679688 124.210938 "/>
<path style=" stroke:none;fill-rule:nonzero;fill:rgb(6.269836%,5.879211%,5.099487%);fill-opacity:1;" d="M 181.640625 78.046875 C 183.707031 78.046875 185.796875 78.105469 187.863281 78.222656 C 190.90625 78.414062 193.246094 81.28125 193.070312 84.609375 C 192.894531 87.960938 190.300781 90.53125 187.257812 90.335938 C 185.40625 90.21875 183.515625 90.179688 181.640625 90.179688 C 126.191406 90.179688 81.097656 139.71875 81.097656 200.609375 L 81.097656 227.199219 C 81.097656 230.550781 78.621094 233.257812 75.558594 233.257812 C 72.515625 233.257812 70.039062 230.550781 70.039062 227.199219 L 70.039062 200.609375 C 70.039062 133.035156 120.105469 78.046875 181.640625 78.046875 "/>
<path style=" stroke:none;fill-rule:nonzero;fill:rgb(6.269836%,5.879211%,5.099487%);fill-opacity:1;" d="M 242.066406 110.964844 C 240.972656 110.964844 239.859375 110.613281 238.90625 109.875 C 229.71875 102.863281 219.617188 97.601562 208.90625 94.292969 C 205.960938 93.394531 204.246094 90.046875 205.085938 86.8125 C 205.90625 83.578125 208.964844 81.707031 211.890625 82.625 C 223.808594 86.304688 235.003906 92.109375 245.222656 99.902344 C 247.722656 101.828125 248.34375 105.609375 246.589844 108.355469 C 245.535156 110.050781 243.800781 110.964844 242.066406 110.964844 "/>
<path style=" stroke:none;fill-rule:nonzero;fill:rgb(6.269836%,5.879211%,5.099487%);fill-opacity:1;" d="M 282.203125 224.628906 L 282.203125 200.609375 C 282.203125 172.382812 272.472656 145.503906 254.800781 124.914062 C 252.695312 122.476562 252.792969 118.640625 255.015625 116.34375 C 257.238281 114.042969 260.75 114.140625 262.835938 116.59375 C 282.457031 139.425781 293.242188 169.265625 293.242188 200.609375 L 293.242188 224.628906 C 293.242188 227.917969 294.355469 231.09375 296.363281 233.550781 L 303.191406 241.867188 C 305.21875 244.359375 305.042969 248.179688 302.78125 250.417969 C 301.726562 251.46875 300.402344 251.976562 299.074219 251.976562 C 297.574219 251.976562 296.070312 251.3125 294.980469 249.96875 L 288.152344 241.671875 C 284.3125 236.976562 282.203125 230.917969 282.203125 224.628906 "/>
<path style=" stroke:none;fill-rule:nonzero;fill:rgb(6.269836%,5.879211%,5.099487%);fill-opacity:1;" d="M 85.855469 330.148438 C 77.527344 311.40625 72.945312 291.265625 72.261719 270.265625 C 72.144531 266.917969 74.523438 264.113281 77.585938 263.996094 C 80.628906 263.878906 83.183594 266.488281 83.300781 269.839844 C 83.925781 289.125 88.140625 307.628906 95.785156 324.828125 C 96.855469 327.246094 96.351562 330.03125 94.710938 331.820312 C 94.300781 332.269531 93.816406 332.640625 93.25 332.953125 C 90.5 334.414062 87.203125 333.167969 85.855469 330.148438 "/>
<path style=" stroke:none;fill-rule:nonzero;fill:rgb(6.269836%,5.879211%,5.099487%);fill-opacity:1;" d="M 137.972656 60.105469 C 140.859375 59.015625 144.019531 60.710938 144.992188 63.882812 C 145.988281 67.039062 144.445312 70.488281 141.558594 71.578125 C 129.371094 76.15625 117.941406 82.796875 107.566406 91.292969 C 106.570312 92.109375 105.417969 92.5 104.269531 92.5 C 102.570312 92.5 100.914062 91.660156 99.820312 90.066406 C 98.007812 87.375 98.515625 83.578125 100.953125 81.570312 C 112.246094 72.320312 124.707031 65.09375 137.972656 60.105469 "/>
<path style=" stroke:none;fill-rule:nonzero;fill:rgb(6.269836%,5.879211%,5.099487%);fill-opacity:1;" d="M 267.5 102.238281 C 244.25 77.753906 213.765625 64.273438 181.640625 64.273438 C 175.671875 64.273438 169.683594 64.761719 163.816406 65.695312 C 160.792969 66.164062 158.003906 63.863281 157.574219 60.554688 C 157.125 57.222656 159.210938 54.144531 162.234375 53.675781 C 168.632812 52.664062 175.144531 52.136719 181.640625 52.136719 C 216.632812 52.136719 249.828125 66.824219 275.144531 93.472656 C 300.363281 120.042969 315.128906 155.691406 316.6875 193.871094 C 316.824219 197.21875 314.464844 200.042969 311.421875 200.199219 C 311.34375 200.199219 311.246094 200.199219 311.167969 200.199219 C 308.222656 200.199219 305.785156 197.667969 305.648438 194.414062 C 304.222656 159.371094 290.667969 126.628906 267.5 102.238281 "/>
<path style=" stroke:none;fill-rule:nonzero;fill:rgb(6.269836%,5.879211%,5.099487%);fill-opacity:1;" d="M 181.640625 26.25 C 194.007812 26.25 206.3125 27.828125 218.230469 30.925781 C 221.214844 31.703125 223.046875 34.976562 222.347656 38.230469 C 221.644531 41.503906 218.660156 43.527344 215.695312 42.75 C 204.597656 39.867188 193.148438 38.386719 181.640625 38.386719 C 141.132812 38.386719 103.3125 56.132812 75.167969 88.3125 C 74.078125 89.558594 72.632812 90.179688 71.171875 90.179688 C 69.804688 90.179688 68.421875 89.617188 67.347656 88.488281 C 65.144531 86.167969 65.085938 82.3125 67.191406 79.894531 C 81.859375 63.125 99.082031 49.9375 118.410156 40.683594 C 138.402344 31.121094 159.699219 26.25 181.640625 26.25 "/>
<path style=" stroke:none;fill-rule:nonzero;fill:rgb(6.269836%,5.879211%,5.099487%);fill-opacity:1;" d="M 235.0625 42.75 C 236.234375 39.652344 239.453125 38.191406 242.28125 39.476562 C 260.300781 47.675781 276.800781 59.519531 290.941406 74.265625 C 291.019531 74.363281 291.117188 74.460938 291.195312 74.539062 C 309.433594 92.65625 323.726562 115.347656 332.738281 140.671875 C 333.851562 143.789062 332.445312 147.3125 329.597656 148.542969 C 328.410156 149.046875 327.140625 149.066406 326.011719 148.695312 C 324.429688 148.171875 323.085938 146.90625 322.441406 145.09375 C 316.960938 129.703125 309.394531 115.367188 300.089844 102.570312 C 295.15625 95.792969 289.734375 89.460938 283.882812 83.636719 C 283.882812 83.617188 283.882812 83.617188 283.863281 83.617188 L 277.015625 76.839844 C 265.351562 65.988281 252.207031 57.125 238.046875 50.695312 C 235.238281 49.390625 233.894531 45.847656 235.0625 42.75 "/>
<path style=" stroke:none;fill-rule:nonzero;fill:rgb(6.269836%,5.879211%,5.099487%);fill-opacity:1;" d="M 52.464844 255.582031 C 49.480469 256.300781 46.535156 254.234375 45.875 250.945312 C 41.71875 230.023438 41.152344 208.363281 44.117188 187.207031 C 44.136719 187.089844 44.15625 186.953125 44.175781 186.816406 C 47.316406 160.035156 56.113281 134.183594 69.902344 111.609375 C 71.597656 108.824219 75.03125 108.082031 77.566406 109.953125 C 78.640625 110.730469 79.363281 111.863281 79.753906 113.109375 C 80.238281 114.804688 80.0625 116.769531 79.070312 118.367188 C 70.703125 132.101562 64.304688 147.101562 60.054688 162.800781 C 57.808594 171.117188 56.152344 179.609375 55.15625 188.238281 C 55.136719 188.238281 55.136719 188.238281 55.15625 188.257812 L 53.988281 198.292969 C 52.523438 215.003906 53.421875 231.914062 56.679688 248.371094 C 57.324219 251.625 55.449219 254.878906 52.464844 255.582031 "/>
<path style=" stroke:none;fill-rule:nonzero;fill:rgb(6.269836%,5.879211%,5.099487%);fill-opacity:1;" d="M 262.328125 32.738281 C 261.511719 32.71875 260.691406 32.503906 259.929688 32.09375 C 236.835938 19.335938 211.96875 12.652344 185.992188 12.1875 C 172.453125 11.953125 158.957031 13.472656 145.851562 16.6875 C 142.867188 17.425781 139.921875 15.363281 139.257812 12.109375 C 138.578125 8.835938 140.449219 5.582031 143.433594 4.84375 C 157.378906 1.414062 171.753906 -0.183594 186.167969 0.0703125 C 213.824219 0.558594 240.308594 7.667969 264.882812 21.242188 C 267.613281 22.742188 268.707031 26.386719 267.34375 29.386719 C 266.367188 31.527344 264.378906 32.757812 262.328125 32.738281 "/>
<path style=" stroke:none;fill-rule:nonzero;fill:rgb(6.269836%,5.879211%,5.099487%);fill-opacity:1;" d="M 118.488281 25.761719 C 112.773438 28.257812 107.136719 31.121094 101.714844 34.277344 C 100.894531 34.742188 100.015625 34.976562 99.140625 34.976562 C 97.148438 34.976562 95.238281 33.808594 94.242188 31.761719 C 92.820312 28.78125 93.855469 25.121094 96.546875 23.542969 C 102.316406 20.191406 108.324219 17.132812 114.390625 14.484375 C 117.21875 13.238281 120.4375 14.757812 121.570312 17.875 C 122.699219 20.992188 121.316406 24.515625 118.488281 25.761719 "/>
</g>
</svg>
