<?xml version="1.0" encoding="UTF-8"?>
<svg xmlns="http://www.w3.org/2000/svg" xmlns:xlink="http://www.w3.org/1999/xlink" width="375pt" height="374.999991pt" viewBox="0 0 375 374.999991" version="1.2">
<defs>
<clipPath id="clip1">
  <path d="M 1 28 L 321 28 L 321 369.09375 L 1 369.09375 Z M 1 28 "/>
</clipPath>
</defs>
<g id="surface1">
<g clip-path="url(#clip1)" clip-rule="nonzero">
<path style=" stroke:none;fill-rule:nonzero;fill:rgb(0%,0%,0%);fill-opacity:1;" d="M 225.785156 39.699219 C 221.660156 32.625 213.613281 28.300781 205.5625 28.890625 C 197.316406 29.480469 190.050781 34.984375 187.105469 42.648438 L 182.394531 54.832031 C 166.886719 94.335938 138.222656 127.746094 101.507812 148.972656 L 15.125 198.890625 C 8.84375 202.425781 4.128906 208.714844 2.363281 215.59375 C 0.398438 222.667969 1.382812 230.136719 5.113281 236.625 L 37.113281 292.046875 C 40.84375 298.332031 46.734375 303.050781 53.800781 304.820312 C 56.15625 305.410156 58.511719 305.800781 61.066406 305.800781 C 65.777344 305.800781 70.488281 304.621094 74.808594 302.066406 L 80.5 298.726562 L 118.785156 365.152344 C 119.964844 367.121094 121.730469 368.496094 123.890625 369.085938 C 124.675781 369.28125 125.265625 369.28125 126.050781 369.28125 C 127.621094 369.28125 128.996094 368.886719 130.367188 368.101562 L 159.816406 351.003906 C 163.941406 348.644531 165.316406 343.535156 162.960938 339.410156 L 124.675781 272.980469 L 160.996094 251.953125 C 197.710938 230.726562 241.097656 222.472656 282.914062 228.957031 L 295.871094 230.925781 C 303.921875 232.101562 312.363281 228.566406 316.878906 221.6875 C 321.589844 214.808594 321.789062 205.769531 317.664062 198.691406 Z M 66.167969 287.328125 C 63.8125 288.703125 60.867188 289.097656 58.121094 288.3125 C 55.371094 287.523438 53.210938 285.757812 51.640625 283.398438 L 19.835938 227.976562 C 18.460938 225.617188 18.070312 222.667969 18.855469 219.917969 C 19.640625 217.167969 21.40625 214.808594 23.761719 213.433594 L 44.179688 201.640625 L 86.785156 275.339844 Z M 143.914062 340.785156 L 129.191406 349.234375 L 95.226562 290.277344 L 105.042969 284.578125 L 109.949219 281.628906 Z M 302.742188 212.449219 C 301.761719 213.824219 299.996094 214.613281 298.226562 214.414062 L 285.269531 212.449219 C 239.527344 205.570312 192.40625 214.414062 152.355469 237.605469 L 108.773438 262.761719 L 108.183594 263.15625 L 101.507812 267.085938 L 58.710938 193.191406 L 109.753906 163.710938 C 132.921875 150.542969 152.945312 132.660156 169.046875 111.828125 L 211.648438 185.527344 C 213.21875 188.277344 216.164062 189.847656 219.109375 189.847656 C 220.484375 189.847656 222.054688 189.457031 223.429688 188.671875 C 227.550781 186.3125 228.925781 181.003906 226.570312 177.074219 L 180.039062 96.496094 C 187.105469 85.296875 193.390625 73.503906 198.296875 61.121094 L 203.011719 48.9375 C 203.597656 47.363281 205.167969 46.1875 206.9375 45.988281 C 207.132812 45.988281 207.132812 45.988281 207.328125 45.988281 C 208.898438 45.988281 210.46875 46.777344 211.253906 48.347656 L 303.332031 207.929688 C 303.921875 209.109375 303.726562 211.074219 302.742188 212.449219 Z M 302.742188 212.449219 "/>
</g>
<path style=" stroke:none;fill-rule:nonzero;fill:rgb(0%,0%,0%);fill-opacity:1;" d="M 286.449219 110.84375 C 288.019531 113.59375 290.964844 115.167969 293.910156 115.167969 C 295.285156 115.167969 296.855469 114.773438 298.226562 113.988281 L 327.675781 96.890625 C 331.800781 94.53125 333.175781 89.226562 330.820312 85.296875 C 328.460938 81.167969 323.160156 79.792969 319.234375 82.152344 L 289.785156 99.25 C 285.46875 101.605469 284.09375 106.914062 286.449219 110.84375 Z M 286.449219 110.84375 "/>
<path style=" stroke:none;fill-rule:nonzero;fill:rgb(0%,0%,0%);fill-opacity:1;" d="M 255.035156 54.636719 C 256.410156 55.621094 258.179688 56.011719 259.75 56.011719 C 262.496094 56.011719 265.246094 54.636719 266.816406 52.277344 L 287.824219 20.441406 C 290.375 16.511719 289.394531 11.203125 285.46875 8.648438 C 281.539062 6.09375 276.238281 7.078125 273.6875 11.007812 L 252.679688 42.84375 C 250.128906 46.777344 251.109375 52.082031 255.035156 54.636719 Z M 255.035156 54.636719 "/>
<path style=" stroke:none;fill-rule:nonzero;fill:rgb(0%,0%,0%);fill-opacity:1;" d="M 365.371094 154.867188 L 327.285156 157.226562 C 322.574219 157.421875 319.039062 161.550781 319.234375 166.265625 C 319.433594 170.785156 323.160156 174.324219 327.675781 174.324219 C 327.875 174.324219 328.070312 174.324219 328.265625 174.324219 L 366.355469 171.964844 C 371.066406 171.769531 374.601562 167.640625 374.402344 162.925781 C 374.207031 158.207031 370.085938 154.472656 365.371094 154.867188 Z M 365.371094 154.867188 "/>
</g>
</svg>
