<?xml version="1.0" encoding="UTF-8"?>
<svg xmlns="http://www.w3.org/2000/svg" xmlns:xlink="http://www.w3.org/1999/xlink" width="375pt" height="374.999991pt" viewBox="0 0 375 374.999991" version="1.2">
<g id="surface1">
<path style=" stroke:none;fill-rule:nonzero;fill:rgb(0%,0%,0%);fill-opacity:1;" d="M 350 125 C 336.210938 125 325 113.789062 325 100 C 325 86.210938 336.210938 75 350 75 C 363.789062 75 375 86.210938 375 100 C 375 113.789062 363.789062 125 350 125 Z M 350 87.5 C 343.105469 87.5 337.5 93.105469 337.5 100 C 337.5 106.894531 343.105469 112.5 350 112.5 C 356.894531 112.5 362.5 106.894531 362.5 100 C 362.5 93.105469 356.894531 87.5 350 87.5 Z M 350 87.5 "/>
<path style=" stroke:none;fill-rule:nonzero;fill:rgb(0%,0%,0%);fill-opacity:1;" d="M 25 331.25 C 11.210938 331.25 0 320.039062 0 306.25 C 0 292.460938 11.210938 281.25 25 281.25 C 38.789062 281.25 50 292.460938 50 306.25 C 50 320.039062 38.789062 331.25 25 331.25 Z M 25 293.75 C 18.105469 293.75 12.5 299.355469 12.5 306.25 C 12.5 313.144531 18.105469 318.75 25 318.75 C 31.894531 318.75 37.5 313.144531 37.5 306.25 C 37.5 299.355469 31.894531 293.75 25 293.75 Z M 25 293.75 "/>
<path style=" stroke:none;fill-rule:nonzero;fill:rgb(0%,0%,0%);fill-opacity:1;" d="M 335.164062 94.78125 C 334.25 94.78125 333.324219 94.582031 332.449219 94.15625 L 278.53125 68.125 C 275.425781 66.625 274.117188 62.886719 275.617188 59.78125 C 277.117188 56.675781 280.851562 55.363281 283.960938 56.867188 L 337.882812 82.898438 C 340.988281 84.398438 342.292969 88.136719 340.792969 91.242188 C 339.71875 93.480469 337.488281 94.78125 335.164062 94.78125 Z M 335.164062 94.78125 "/>
<path style=" stroke:none;fill-rule:nonzero;fill:rgb(0%,0%,0%);fill-opacity:1;" d="M 281.25 375 C 267.460938 375 256.25 363.789062 256.25 350 C 256.25 336.210938 267.460938 325 281.25 325 C 295.039062 325 306.25 336.210938 306.25 350 C 306.25 363.789062 295.039062 375 281.25 375 Z M 281.25 337.5 C 274.355469 337.5 268.75 343.105469 268.75 350 C 268.75 356.894531 274.355469 362.5 281.25 362.5 C 288.144531 362.5 293.75 356.894531 293.75 350 C 293.75 343.105469 288.144531 337.5 281.25 337.5 Z M 281.25 337.5 "/>
<path style=" stroke:none;fill-rule:nonzero;fill:rgb(0%,0%,0%);fill-opacity:1;" d="M 266.414062 344.78125 C 265.5 344.78125 264.574219 344.582031 263.699219 344.15625 L 209.78125 318.125 C 206.675781 316.625 205.367188 312.886719 206.867188 309.78125 C 208.367188 306.667969 212.101562 305.363281 215.210938 306.867188 L 269.132812 332.898438 C 272.238281 334.398438 273.542969 338.136719 272.042969 341.242188 C 270.96875 343.480469 268.738281 344.78125 266.414062 344.78125 Z M 266.414062 344.78125 "/>
<path style=" stroke:none;fill-rule:nonzero;fill:rgb(0%,0%,0%);fill-opacity:1;" d="M 187.5 218.75 C 173.710938 218.75 162.5 207.539062 162.5 193.75 C 162.5 179.960938 173.710938 168.75 187.5 168.75 C 201.289062 168.75 212.5 179.960938 212.5 193.75 C 212.5 207.539062 201.289062 218.75 187.5 218.75 Z M 187.5 181.25 C 180.605469 181.25 175 186.855469 175 193.75 C 175 200.644531 180.605469 206.25 187.5 206.25 C 194.394531 206.25 200 200.644531 200 193.75 C 200 186.855469 194.394531 181.25 187.5 181.25 Z M 187.5 181.25 "/>
<path style=" stroke:none;fill-rule:nonzero;fill:rgb(0%,0%,0%);fill-opacity:1;" d="M 172.664062 188.53125 C 171.320312 188.53125 169.96875 188.101562 168.824219 187.210938 L 127.40625 154.929688 C 124.679688 152.804688 124.199219 148.882812 126.320312 146.15625 C 128.445312 143.429688 132.367188 142.960938 135.09375 145.070312 L 176.511719 177.351562 C 179.238281 179.476562 179.71875 183.398438 177.601562 186.125 C 176.363281 187.707031 174.523438 188.53125 172.664062 188.53125 Z M 172.664062 188.53125 "/>
<path style=" stroke:none;fill-rule:nonzero;fill:rgb(0%,0%,0%);fill-opacity:1;" d="M 300 300 C 262.09375 300 231.25 269.15625 231.25 231.25 C 231.25 193.34375 262.09375 162.5 300 162.5 C 337.90625 162.5 368.75 193.34375 368.75 231.25 C 368.75 269.15625 337.90625 300 300 300 Z M 300 175 C 268.980469 175 243.75 200.230469 243.75 231.25 C 243.75 262.269531 268.980469 287.5 300 287.5 C 331.019531 287.5 356.25 262.269531 356.25 231.25 C 356.25 200.230469 331.019531 175 300 175 Z M 300 175 "/>
<path style=" stroke:none;fill-rule:nonzero;fill:rgb(0%,0%,0%);fill-opacity:1;" d="M 300 237.5 C 286.210938 237.5 275 226.289062 275 212.5 C 275 198.710938 286.210938 187.5 300 187.5 C 313.789062 187.5 325 198.710938 325 212.5 C 325 226.289062 313.789062 237.5 300 237.5 Z M 300 200 C 293.105469 200 287.5 205.605469 287.5 212.5 C 287.5 219.394531 293.105469 225 300 225 C 306.894531 225 312.5 219.394531 312.5 212.5 C 312.5 205.605469 306.894531 200 300 200 Z M 300 200 "/>
<path style=" stroke:none;fill-rule:nonzero;fill:rgb(0%,0%,0%);fill-opacity:1;" d="M 300 300 C 287.980469 300 276.09375 296.792969 265.617188 290.730469 C 263.6875 289.613281 262.5 287.550781 262.5 285.320312 L 262.5 268.84375 C 262.5 258.457031 271.1875 250 281.867188 250 L 318.132812 250 C 328.8125 250 337.5 258.457031 337.5 268.851562 L 337.5 285.324219 C 337.5 287.550781 336.3125 289.617188 334.382812 290.730469 C 323.90625 296.792969 312.019531 300 300 300 Z M 275 281.59375 C 290.554688 289.34375 309.445312 289.34375 325 281.59375 L 325 268.851562 C 325 265.351562 321.917969 262.5 318.132812 262.5 L 281.867188 262.5 C 278.082031 262.5 275 265.351562 275 268.851562 Z M 275 281.59375 "/>
<path style=" stroke:none;fill-rule:nonzero;fill:rgb(0%,0%,0%);fill-opacity:1;" d="M 150 375 C 112.09375 375 81.25 344.15625 81.25 306.25 C 81.25 268.34375 112.09375 237.5 150 237.5 C 187.90625 237.5 218.75 268.34375 218.75 306.25 C 218.75 344.15625 187.90625 375 150 375 Z M 150 250 C 118.980469 250 93.75 275.230469 93.75 306.25 C 93.75 337.269531 118.980469 362.5 150 362.5 C 181.019531 362.5 206.25 337.269531 206.25 306.25 C 206.25 275.230469 181.019531 250 150 250 Z M 150 250 "/>
<path style=" stroke:none;fill-rule:nonzero;fill:rgb(0%,0%,0%);fill-opacity:1;" d="M 150 312.5 C 136.210938 312.5 125 301.289062 125 287.5 C 125 273.710938 136.210938 262.5 150 262.5 C 163.789062 262.5 175 273.710938 175 287.5 C 175 301.289062 163.789062 312.5 150 312.5 Z M 150 275 C 143.105469 275 137.5 280.605469 137.5 287.5 C 137.5 294.394531 143.105469 300 150 300 C 156.894531 300 162.5 294.394531 162.5 287.5 C 162.5 280.605469 156.894531 275 150 275 Z M 150 275 "/>
<path style=" stroke:none;fill-rule:nonzero;fill:rgb(0%,0%,0%);fill-opacity:1;" d="M 150 375 C 137.980469 375 126.09375 371.792969 115.617188 365.730469 C 113.6875 364.613281 112.5 362.550781 112.5 360.320312 L 112.5 343.84375 C 112.5 333.457031 121.1875 325 131.867188 325 L 168.132812 325 C 178.8125 325 187.5 333.457031 187.5 343.851562 L 187.5 360.324219 C 187.5 362.550781 186.3125 364.617188 184.382812 365.730469 C 173.90625 371.792969 162.019531 375 150 375 Z M 125 356.59375 C 140.554688 364.34375 159.445312 364.34375 175 356.59375 L 175 343.851562 C 175 340.351562 171.917969 337.5 168.132812 337.5 L 131.867188 337.5 C 128.082031 337.5 125 340.351562 125 343.851562 Z M 125 356.59375 "/>
<path style=" stroke:none;fill-rule:nonzero;fill:rgb(0%,0%,0%);fill-opacity:1;" d="M 68.75 218.75 C 30.84375 218.75 0 187.90625 0 150 C 0 112.09375 30.84375 81.25 68.75 81.25 C 106.65625 81.25 137.5 112.09375 137.5 150 C 137.5 187.90625 106.65625 218.75 68.75 218.75 Z M 68.75 93.75 C 37.730469 93.75 12.5 118.980469 12.5 150 C 12.5 181.019531 37.730469 206.25 68.75 206.25 C 99.769531 206.25 125 181.019531 125 150 C 125 118.980469 99.769531 93.75 68.75 93.75 Z M 68.75 93.75 "/>
<path style=" stroke:none;fill-rule:nonzero;fill:rgb(0%,0%,0%);fill-opacity:1;" d="M 68.75 156.25 C 54.960938 156.25 43.75 145.039062 43.75 131.25 C 43.75 117.460938 54.960938 106.25 68.75 106.25 C 82.539062 106.25 93.75 117.460938 93.75 131.25 C 93.75 145.039062 82.539062 156.25 68.75 156.25 Z M 68.75 118.75 C 61.855469 118.75 56.25 124.355469 56.25 131.25 C 56.25 138.144531 61.855469 143.75 68.75 143.75 C 75.644531 143.75 81.25 138.144531 81.25 131.25 C 81.25 124.355469 75.644531 118.75 68.75 118.75 Z M 68.75 118.75 "/>
<path style=" stroke:none;fill-rule:nonzero;fill:rgb(0%,0%,0%);fill-opacity:1;" d="M 68.75 218.75 C 56.730469 218.75 44.84375 215.542969 34.367188 209.480469 C 32.4375 208.363281 31.25 206.300781 31.25 204.070312 L 31.25 187.59375 C 31.25 177.207031 39.9375 168.75 50.617188 168.75 L 86.882812 168.75 C 97.5625 168.75 106.25 177.207031 106.25 187.601562 L 106.25 204.074219 C 106.25 206.300781 105.0625 208.367188 103.132812 209.480469 C 92.65625 215.542969 80.769531 218.75 68.75 218.75 Z M 43.75 200.34375 C 59.304688 208.09375 78.195312 208.09375 93.75 200.34375 L 93.75 187.601562 C 93.75 184.101562 90.667969 181.25 86.882812 181.25 L 50.617188 181.25 C 46.832031 181.25 43.75 184.101562 43.75 187.601562 Z M 43.75 200.34375 "/>
<path style=" stroke:none;fill-rule:nonzero;fill:rgb(0%,0%,0%);fill-opacity:1;" d="M 218.75 137.5 C 180.84375 137.5 150 106.65625 150 68.75 C 150 30.84375 180.84375 0 218.75 0 C 256.65625 0 287.5 30.84375 287.5 68.75 C 287.5 106.65625 256.65625 137.5 218.75 137.5 Z M 218.75 12.5 C 187.730469 12.5 162.5 37.730469 162.5 68.75 C 162.5 99.769531 187.730469 125 218.75 125 C 249.769531 125 275 99.769531 275 68.75 C 275 37.730469 249.769531 12.5 218.75 12.5 Z M 218.75 12.5 "/>
<path style=" stroke:none;fill-rule:nonzero;fill:rgb(0%,0%,0%);fill-opacity:1;" d="M 218.75 75 C 204.960938 75 193.75 63.789062 193.75 50 C 193.75 36.210938 204.960938 25 218.75 25 C 232.539062 25 243.75 36.210938 243.75 50 C 243.75 63.789062 232.539062 75 218.75 75 Z M 218.75 37.5 C 211.855469 37.5 206.25 43.105469 206.25 50 C 206.25 56.894531 211.855469 62.5 218.75 62.5 C 225.644531 62.5 231.25 56.894531 231.25 50 C 231.25 43.105469 225.644531 37.5 218.75 37.5 Z M 218.75 37.5 "/>
<path style=" stroke:none;fill-rule:nonzero;fill:rgb(0%,0%,0%);fill-opacity:1;" d="M 218.75 137.5 C 206.730469 137.5 194.84375 134.292969 184.367188 128.230469 C 182.4375 127.113281 181.25 125.050781 181.25 122.820312 L 181.25 106.34375 C 181.25 95.957031 189.9375 87.5 200.617188 87.5 L 236.882812 87.5 C 247.5625 87.5 256.25 95.957031 256.25 106.351562 L 256.25 122.824219 C 256.25 125.050781 255.0625 127.117188 253.132812 128.230469 C 242.65625 134.292969 230.769531 137.5 218.75 137.5 Z M 193.75 119.09375 C 209.304688 126.84375 228.195312 126.84375 243.75 119.09375 L 243.75 106.351562 C 243.75 102.851562 240.667969 100 236.882812 100 L 200.617188 100 C 196.832031 100 193.75 102.851562 193.75 106.351562 Z M 193.75 119.09375 "/>
<path style=" stroke:none;fill-rule:nonzero;fill:rgb(0%,0%,0%);fill-opacity:1;" d="M 112.945312 112.0625 C 111.179688 112.0625 109.429688 111.320312 108.195312 109.875 C 105.949219 107.25 106.257812 103.304688 108.882812 101.0625 L 152.195312 64 C 154.820312 61.757812 158.761719 62.070312 161.007812 64.679688 C 163.25 67.304688 162.945312 71.25 160.320312 73.492188 L 117.007812 110.554688 C 115.824219 111.570312 114.382812 112.0625 112.945312 112.0625 Z M 112.945312 112.0625 "/>
<path style=" stroke:none;fill-rule:nonzero;fill:rgb(0%,0%,0%);fill-opacity:1;" d="M 293.757812 175 C 291.855469 175 289.980469 174.136719 288.75 172.5 L 251.25 122.5 C 249.179688 119.742188 249.738281 115.824219 252.5 113.757812 C 255.261719 111.695312 259.179688 112.238281 261.25 115.007812 L 298.75 165.007812 C 300.820312 167.761719 300.261719 171.679688 297.5 173.75 C 296.375 174.59375 295.054688 175 293.757812 175 Z M 293.757812 175 "/>
<path style=" stroke:none;fill-rule:nonzero;fill:rgb(0%,0%,0%);fill-opacity:1;" d="M 207.550781 288.09375 C 205.648438 288.09375 203.773438 287.230469 202.542969 285.59375 C 200.476562 282.835938 201.03125 278.917969 203.792969 276.851562 L 238.707031 250.667969 C 241.46875 248.601562 245.386719 249.15625 247.457031 251.917969 C 249.523438 254.675781 248.96875 258.59375 246.207031 260.664062 L 211.292969 286.84375 C 210.167969 287.679688 208.855469 288.09375 207.550781 288.09375 Z M 207.550781 288.09375 "/>
<path style=" stroke:none;fill-rule:nonzero;fill:rgb(0%,0%,0%);fill-opacity:1;" d="M 87.5 312.5 L 43.75 312.5 C 40.300781 312.5 37.5 309.707031 37.5 306.25 C 37.5 302.792969 40.300781 300 43.75 300 L 87.5 300 C 90.949219 300 93.75 302.792969 93.75 306.25 C 93.75 309.707031 90.949219 312.5 87.5 312.5 Z M 87.5 312.5 "/>
<path style=" stroke:none;fill-rule:nonzero;fill:rgb(0%,0%,0%);fill-opacity:1;" d="M 68.75 50 C 54.960938 50 43.75 38.789062 43.75 25 C 43.75 11.210938 54.960938 0 68.75 0 C 82.539062 0 93.75 11.210938 93.75 25 C 93.75 38.789062 82.539062 50 68.75 50 Z M 68.75 12.5 C 61.855469 12.5 56.25 18.105469 56.25 25 C 56.25 31.894531 61.855469 37.5 68.75 37.5 C 75.644531 37.5 81.25 31.894531 81.25 25 C 81.25 18.105469 75.644531 12.5 68.75 12.5 Z M 68.75 12.5 "/>
<path style=" stroke:none;fill-rule:nonzero;fill:rgb(0%,0%,0%);fill-opacity:1;" d="M 68.75 93.75 C 65.300781 93.75 62.5 90.957031 62.5 87.5 L 62.5 43.75 C 62.5 40.292969 65.300781 37.5 68.75 37.5 C 72.199219 37.5 75 40.292969 75 43.75 L 75 87.5 C 75 90.957031 72.199219 93.75 68.75 93.75 Z M 68.75 93.75 "/>
</g>
</svg>
